<?xml version="1.0" encoding="UTF-8" standalone="no"?>
<!-- Created with Inkscape (http://www.inkscape.org/) -->

<svg
   xmlns:dc="http://purl.org/dc/elements/1.1/"
   xmlns:cc="http://creativecommons.org/ns#"
   xmlns:rdf="http://www.w3.org/1999/02/22-rdf-syntax-ns#"
   xmlns:svg="http://www.w3.org/2000/svg"
   xmlns="http://www.w3.org/2000/svg"
   xmlns:xlink="http://www.w3.org/1999/xlink"
   xmlns:sodipodi="http://sodipodi.sourceforge.net/DTD/sodipodi-0.dtd"
   xmlns:inkscape="http://www.inkscape.org/namespaces/inkscape"
   width="1152"
   height="860.90186"
   id="svg2"
   version="1.1"
   inkscape:version="0.48.1 r9760"
   sodipodi:docname="UI1.svg">
  <defs
     id="defs4" />
  <sodipodi:namedview
     id="base"
     pagecolor="#ffffff"
     bordercolor="#666666"
     borderopacity="1.0"
     inkscape:pageopacity="0.0"
     inkscape:pageshadow="2"
     inkscape:zoom="1"
     inkscape:cx="611.34363"
     inkscape:cy="467"
     inkscape:document-units="px"
     inkscape:current-layer="layer1"
     showgrid="false"
     fit-margin-top="100"
     fit-margin-left="100"
     fit-margin-right="100"
     fit-margin-bottom="100"
     inkscape:window-width="1760"
     inkscape:window-height="1093"
     inkscape:window-x="27"
     inkscape:window-y="0"
     inkscape:window-maximized="0" />
  <metadata
     id="metadata7">
    <rdf:RDF>
      <cc:Work
         rdf:about="">
        <dc:format>image/svg+xml</dc:format>
        <dc:type
           rdf:resource="http://purl.org/dc/dcmitype/StillImage" />
        <dc:title />
      </cc:Work>
    </rdf:RDF>
  </metadata>
  <g
     inkscape:label="Layer 1"
     inkscape:groupmode="layer"
     id="layer1"
     transform="translate(24,-86.362183)">
    <image
       y="86.264038"
       x="-25"
       id="image9075"
       xlink:href="file:///Users/vern/Desktop/Kde_wallpapers_231.jpg"
       height="1200"
       width="1600" />
    <g
       id="g6792"
       transform="translate(166,83)">
      <rect
         ry="6.7941175"
         y="197.26404"
         x="18"
         height="385"
         width="370"
         id="rect11274"
         style="fill:#333333;fill-opacity:1;stroke:none" />
      <text
         sodipodi:linespacing="125%"
         id="text3837"
         y="276.86169"
         x="94.636719"
         style="font-size:40px;font-style:normal;font-variant:normal;font-weight:500;font-stretch:normal;line-height:125%;letter-spacing:0px;word-spacing:0px;fill:#ffffff;fill-opacity:1;stroke:none;font-family:Venus;-inkscape-font-specification:Venus Medium"
         xml:space="preserve"><tspan
           style="font-size:21px;font-style:normal;font-variant:normal;font-weight:normal;font-stretch:normal;fill:#ffffff;font-family:Oxygen-Sans;-inkscape-font-specification:Oxygen-Sans"
           y="276.86169"
           x="94.636719"
           id="tspan3839"
           sodipodi:role="line">Welcome to InfinityBox</tspan></text>
      <g
         transform="translate(-168,4.5)"
         id="g12068">
        <rect
           y="338.26404"
           x="196"
           height="46"
           width="350"
           id="rect12050"
           style="fill:#ffffff;fill-opacity:1;stroke:none" />
        <rect
           style="fill:#ffffff;fill-opacity:1;stroke:none"
           id="rect12052"
           width="350"
           height="46"
           x="196"
           y="386.26404" />
        <text
           xml:space="preserve"
           style="font-size:40px;font-style:normal;font-variant:normal;font-weight:500;font-stretch:normal;line-height:125%;letter-spacing:0px;word-spacing:0px;fill:#333333;fill-opacity:1;stroke:none;font-family:Venus;-inkscape-font-specification:Venus Medium"
           x="212.60107"
           y="368.86169"
           id="text12054"
           sodipodi:linespacing="125%"><tspan
             sodipodi:role="line"
             id="tspan12056"
             x="212.60107"
             y="368.86169"
             style="font-size:18px;font-style:normal;font-variant:normal;font-weight:normal;font-stretch:normal;fill:#333333;font-family:Oxygen-Sans;-inkscape-font-specification:Oxygen-Sans">Username</tspan></text>
        <text
           sodipodi:linespacing="125%"
           id="text12058"
           y="414.86169"
           x="212.62158"
           style="font-size:40px;font-style:normal;font-variant:normal;font-weight:500;font-stretch:normal;line-height:125%;letter-spacing:0px;word-spacing:0px;fill:#333333;fill-opacity:1;stroke:none;font-family:Venus;-inkscape-font-specification:Venus Medium"
           xml:space="preserve"><tspan
             style="font-size:18px;font-style:normal;font-variant:normal;font-weight:normal;font-stretch:normal;fill:#333333;font-family:Oxygen-Sans;-inkscape-font-specification:Oxygen-Sans"
             y="414.86169"
             x="212.62158"
             id="tspan12060"
             sodipodi:role="line">••••••••••</tspan></text>
      </g>
      <rect
         style="fill:#2f74cf;fill-opacity:1;stroke:none"
         id="rect12076"
         width="349"
         height="46"
         x="28.5"
         y="527.26404" />
      <text
         sodipodi:linespacing="125%"
         id="text12078"
         y="555.86169"
         x="175.04272"
         style="font-size:40px;font-style:normal;font-variant:normal;font-weight:500;font-stretch:normal;line-height:125%;letter-spacing:0px;word-spacing:0px;fill:#ffffff;fill-opacity:1;stroke:none;font-family:Venus;-inkscape-font-specification:Venus Medium"
         xml:space="preserve"><tspan
           style="font-size:21px;font-style:normal;font-variant:normal;font-weight:normal;font-stretch:normal;fill:#ffffff;font-family:Oxygen-Sans;-inkscape-font-specification:Oxygen-Sans"
           y="555.86169"
           x="175.04272"
           id="tspan12080"
           sodipodi:role="line">Log in</tspan></text>
    </g>
    <g
       id="g6759"
       transform="translate(166,83)">
      <rect
         style="fill:#333333;fill-opacity:1;stroke:none"
         id="rect12084"
         width="370"
         height="385"
         x="430"
         y="197.26404"
         ry="6.7941175" />
      <text
         xml:space="preserve"
         style="font-size:40px;font-style:normal;font-variant:normal;font-weight:500;font-stretch:normal;line-height:125%;letter-spacing:0px;word-spacing:0px;fill:#ffffff;fill-opacity:1;stroke:none;font-family:Venus;-inkscape-font-specification:Venus Medium"
         x="446.61499"
         y="242.86169"
         id="text12086"
         sodipodi:linespacing="125%"><tspan
           sodipodi:role="line"
           id="tspan12088"
           x="446.61499"
           y="242.86169"
           style="font-size:21px;font-style:normal;font-variant:normal;font-weight:normal;font-stretch:normal;fill:#ffffff;font-family:Oxygen-Sans;-inkscape-font-specification:Oxygen-Sans">Your Hub</tspan></text>
      <rect
         y="270.76404"
         x="430.5"
         height="241.91106"
         width="369"
         id="rect12096"
         style="fill:#ffffff;fill-opacity:1;stroke:none" />
      <text
         sodipodi:linespacing="125%"
         id="text13099"
         y="302.86169"
         x="476.2356"
         style="font-size:40px;font-style:normal;font-variant:normal;font-weight:500;font-stretch:normal;line-height:125%;letter-spacing:0px;word-spacing:0px;fill:#333333;fill-opacity:1;stroke:none;font-family:Venus;-inkscape-font-specification:Venus Medium"
         xml:space="preserve"><tspan
           style="font-size:18px;font-style:normal;font-variant:normal;font-weight:normal;font-stretch:normal;fill:#333333;font-family:Oxygen-Sans;-inkscape-font-specification:Oxygen-Sans"
           y="302.86169"
           x="476.2356"
           id="tspan13101"
           sodipodi:role="line">notifications</tspan></text>
      <path
         transform="matrix(0.72514993,0,0,0.72514993,266.46038,389.6514)"
         d="m 464,-125.09814 c 0,8.83656 -7.16344,16 -16,16 -8.83656,0 -16,-7.16344 -16,-16 0,-8.83655 7.16344,-16 16,-16 8.83656,0 16,7.16345 16,16 z"
         sodipodi:ry="16"
         sodipodi:rx="16"
         sodipodi:cy="-125.09814"
         sodipodi:cx="448"
         id="path13103"
         style="fill:#bd4949;fill-opacity:0.8;stroke:#ffffff;stroke-width:2;stroke-miterlimit:4;stroke-opacity:1;stroke-dasharray:none;stroke-dashoffset:0"
         sodipodi:type="arc" />
      <text
         sodipodi:linespacing="125%"
         id="text13105"
         y="304.44592"
         x="587.42261"
         style="font-size:29.0059967px;font-style:normal;font-variant:normal;font-weight:500;font-stretch:normal;line-height:125%;letter-spacing:0px;word-spacing:0px;fill:#ffffff;fill-opacity:1;stroke:none;font-family:Venus;-inkscape-font-specification:Venus Medium"
         xml:space="preserve"><tspan
           style="font-size:15.22814846px;font-style:normal;font-variant:normal;font-weight:normal;font-stretch:normal;fill:#ffffff;font-family:Oxygen-Sans;-inkscape-font-specification:Oxygen-Sans"
           y="304.44592"
           x="587.42261"
           id="tspan13107"
           sodipodi:role="line">2</tspan></text>
      <g
         style="fill:#333333"
         transform="matrix(0.02108732,0,0,-0.02108732,446.06778,500.34946)"
         id="g4005">
        <path
           style="fill:#333333"
           inkscape:connector-curvature="0"
           d="M 488,183 526,32 q 40,-5 74,-5 27,0 74,5 l 38,151 6,2 q 46,13 93,39 l 5,3 134,-81 q 56,44 104,105 l -80,134 3,5 q 24,44 39,93 l 1,6 152,38 q 5,40 5,74 0,28 -5,73 l -152,38 -1,6 q -16,51 -39,93 l -3,5 80,134 q -44,58 -104,105 l -134,-81 -5,3 q -45,25 -93,39 l -6,1 -38,152 q -40,5 -74,5 -27,0 -74,-5 l -38,-152 -5,-1 q -50,-14 -94,-39 l -5,-3 -133,81 Q 192,1008 146,950 l 80,-134 -3,-5 q -25,-47 -38,-93 l -2,-6 -151,-38 q -6,-48 -6,-73 0,-33 6,-74 l 151,-38 2,-6 q 14,-49 38,-93 l 3,-5 -80,-134 q 45,-59 105,-105 l 133,81 5,-3 q 45,-26 94,-39 z m 112,632 q 89,0 152,-63 63,-63 63,-151 0,-89 -63,-152 -63,-63 -152,-63 -89,0 -152,63 -63,63 -63,152 0,88 63,151 63,63 152,63 z"
           id="path4007" />
      </g>
      <text
         xml:space="preserve"
         style="font-size:40px;font-style:normal;font-variant:normal;font-weight:500;font-stretch:normal;line-height:125%;letter-spacing:0px;word-spacing:0px;fill:#333333;fill-opacity:1;stroke:none;font-family:Venus;-inkscape-font-specification:Venus Medium"
         x="476.2356"
         y="493.65561"
         id="text4017"
         sodipodi:linespacing="125%"><tspan
           sodipodi:role="line"
           id="tspan4019"
           x="476.2356"
           y="493.65561"
           style="font-size:18px;font-style:normal;font-variant:normal;font-weight:normal;font-stretch:normal;fill:#333333;font-family:Oxygen-Sans;-inkscape-font-specification:Oxygen-Sans">options</tspan></text>
      <g
         style="fill:#333333"
         transform="matrix(0.01957814,0,0,-0.01957814,446.97329,309.26404)"
         id="g4647">
        <path
           style="fill:#333333"
           inkscape:connector-curvature="0"
           d="m 200,100 v 953 q 0,21 30,46 30,25 81,48 51,23 129,38 78,15 163,15 85,0 162,-15 77,-15 127,-38 50,-23 79,-48 29,-25 29,-46 V 100 Q 1000,59 970.5,29.5 941,0 900,0 H 300 Q 259,0 229.5,29.5 200,59 200,100 z m 700,900 H 300 V 300 h 600 v 700 z M 600,46 q 43,0 73.5,30.5 Q 704,107 704,150 704,193 673.5,223.5 643,254 600,254 557,254 526.5,223.5 496,193 496,150 496,107 526.5,76.5 557,46 600,46 z"
           id="path4649" />
      </g>
      <g
         style="fill:#333333"
         transform="matrix(0.02046736,0,0,-0.02046736,447.46312,345.46189)"
         id="g5141">
        <path
           style="fill:#333333"
           inkscape:connector-curvature="0"
           d="M 0,400 V 700 Q 0,863 117.5,981.5 235,1100 400,1100 H 700 Q 863,1100 981.5,981 1100,862 1100,700 V 400 Q 1100,235 982.5,117.5 865,0 700,0 H 400 Q 235,0 117.5,117.5 0,235 0,400 z M 900,300 v 500 q 0,41 -29.5,70.5 Q 841,900 800,900 H 300 Q 259,900 229.5,870.5 200,841 200,800 V 300 q 0,-41 29.5,-70.5 Q 259,200 300,200 h 500 q 41,0 70.5,29.5 Q 900,259 900,300 z M 800,700 H 300 L 550,367 z"
           id="path5143" />
      </g>
      <g
         style="fill:#333333"
         transform="matrix(0.01824086,0,0,-0.01824086,447.67761,420.52478)"
         id="g5683">
        <path
           style="fill:#333333"
           inkscape:connector-curvature="0"
           d="m 1050,1200 h 94 q 20,0 35,-14.5 15,-14.5 15,-35.5 0,-21 -15,-35.5 -15,-14.5 -35,-14.5 h -54 L 889,139 q -2,-4 -6,-10.5 Q 879,122 864,111 849,100 831,100 H 800 V 50 Q 800,30 785.5,15 771,0 750,0 729,0 714.5,15 700,30 700,50 v 50 H 400 V 50 Q 400,30 385.5,15 371,0 350,0 329,0 314.5,15 300,30 300,50 v 50 h -50 q -21,0 -35.5,15 -14.5,15 -14.5,35 0,21 14.5,35.5 Q 229,200 250,200 h 535 l 48,200 H 200 q -32,0 -54.5,21 Q 123,442 118,464 L 18,939 q -5,24 10,42 14,19 39,19 h 896 l 38,162 q 5,17 18.5,27.5 13.5,10.5 30.5,10.5 z"
           id="path5685" />
      </g>
      <g
         style="fill:#333333"
         transform="matrix(0.02253713,0,0,-0.02253713,445.19789,385.3478)"
         id="g6225">
        <path
           style="fill:#333333"
           inkscape:connector-curvature="0"
           d="m 600,1213 q 123,0 227,-63 Q 931,1087 991.5,980.5 1052,874 1052,751 1052,628 979,479 906,365 812.5,242 719,119 662,53 L 605,-13 Q 595,-4 578,13 561,30 511.5,83.5 462,137 415.5,192.5 369,248 311.5,328 254,408 211,483 q -63,139 -63,262 0,124 60.5,231.5 60.5,107.5 165,172 Q 478,1213 600,1213 z m -1,-699 q 107,0 182.5,75.5 Q 857,665 857,772 857,879 781.5,954 706,1029 599,1029 492,1029 417,953.5 342,878 342,772 342,665 417.5,589.5 493,514 599,514 z"
           id="path6227" />
      </g>
      <g
         style="fill:#333333"
         transform="matrix(0.01974364,0,0,-0.01974364,445.88681,461.09144)"
         id="g6731">
        <path
           style="fill:#333333"
           inkscape:connector-curvature="0"
           d="m 900,1100 h 275 q 10,0 17.5,-7.5 7.5,-7.5 7.5,-17.5 v -50 q 0,-11 -7,-18 -7,-7 -18,-7 H 125 q -11,0 -18,7 -7,7 -7,18 v 50 q 0,10 7.5,17.5 7.5,7.5 17.5,7.5 h 275 v 100 q 0,41 29.5,70.5 29.5,29.5 70.5,29.5 h 300 q 41,0 70.5,-29.5 Q 900,1241 900,1200 v -100 z m -100,0 v 100 H 500 V 1100 H 800 z M 200,900 h 900 V 100 Q 1100,59 1070.5,29 1041,-1 1000,-1 H 300 Q 259,-1 229.5,29 200,59 200,100 V 900 z M 300,100 H 400 V 800 H 300 V 100 z m 200,0 H 600 V 800 H 500 V 100 z m 200,0 H 800 V 800 H 700 V 100 z m 200,0 h 100 V 800 H 900 V 100 z"
           id="path6733" />
      </g>
      <text
         sodipodi:linespacing="125%"
         id="text6743"
         y="457.42764"
         x="476.2356"
         style="font-size:40px;font-style:normal;font-variant:normal;font-weight:500;font-stretch:normal;line-height:125%;letter-spacing:0px;word-spacing:0px;fill:#333333;fill-opacity:1;stroke:none;font-family:Venus;-inkscape-font-specification:Venus Medium"
         xml:space="preserve"><tspan
           style="font-size:18px;font-style:normal;font-variant:normal;font-weight:normal;font-stretch:normal;fill:#333333;font-family:Oxygen-Sans;-inkscape-font-specification:Oxygen-Sans"
           y="457.42764"
           x="476.2356"
           id="tspan6745"
           sodipodi:role="line">trash</tspan></text>
      <text
         xml:space="preserve"
         style="font-size:40px;font-style:normal;font-variant:normal;font-weight:500;font-stretch:normal;line-height:125%;letter-spacing:0px;word-spacing:0px;fill:#333333;fill-opacity:1;stroke:none;font-family:Venus;-inkscape-font-specification:Venus Medium"
         x="476.2356"
         y="416.811"
         id="text6747"
         sodipodi:linespacing="125%"><tspan
           sodipodi:role="line"
           id="tspan6749"
           x="476.2356"
           y="416.811"
           style="font-size:18px;font-style:normal;font-variant:normal;font-weight:normal;font-stretch:normal;fill:#333333;font-family:Oxygen-Sans;-inkscape-font-specification:Oxygen-Sans">purchased</tspan></text>
      <text
         sodipodi:linespacing="125%"
         id="text6751"
         y="380.25491"
         x="476.2356"
         style="font-size:40px;font-style:normal;font-variant:normal;font-weight:500;font-stretch:normal;line-height:125%;letter-spacing:0px;word-spacing:0px;fill:#333333;fill-opacity:1;stroke:none;font-family:Venus;-inkscape-font-specification:Venus Medium"
         xml:space="preserve"><tspan
           style="font-size:18px;font-style:normal;font-variant:normal;font-weight:normal;font-stretch:normal;fill:#333333;font-family:Oxygen-Sans;-inkscape-font-specification:Oxygen-Sans"
           y="380.25491"
           x="476.2356"
           id="tspan6753"
           sodipodi:role="line">location</tspan></text>
      <text
         xml:space="preserve"
         style="font-size:40px;font-style:normal;font-variant:normal;font-weight:500;font-stretch:normal;line-height:125%;letter-spacing:0px;word-spacing:0px;fill:#333333;fill-opacity:1;stroke:none;font-family:Venus;-inkscape-font-specification:Venus Medium"
         x="476.2356"
         y="341.66855"
         id="text6755"
         sodipodi:linespacing="125%"><tspan
           sodipodi:role="line"
           id="tspan6757"
           x="476.2356"
           y="341.66855"
           style="font-size:18px;font-style:normal;font-variant:normal;font-weight:normal;font-stretch:normal;fill:#333333;font-family:Oxygen-Sans;-inkscape-font-specification:Oxygen-Sans">downloads</tspan></text>
    </g>
  </g>
</svg>
